<svg width="66" height="65" viewBox="0 0 66 65" fill="none" xmlns="http://www.w3.org/2000/svg">
<path d="M3 10C3 4.47715 7.47715 0 13 0H43C48.5228 0 53 4.47715 53 10V40C53 45.5228 48.5228 50 43 50H21.678C20.66 50 19.74 50.6067 19.339 51.5423C18.4577 53.5988 15.5423 53.5988 14.661 51.5423C14.26 50.6067 13.34 50 12.322 50H9.62892C5.96787 50 3 47.0321 3 43.3711V10Z" fill="#312626"/>
<path d="M17.2666 37L8.02664 16H11.2666L19.7566 35.38H17.8966L26.4466 16H29.4466L20.2366 37H17.2666ZM34.8246 25.93H45.6546V28.51H34.8246V25.93ZM35.1246 37H32.1246V16H46.9446V18.61H35.1246V37Z" fill="white"/>
</svg>
